<?xml version="1.0" standalone="no"?><!DOCTYPE svg PUBLIC "-//W3C//DTD SVG 1.1//EN" "http://www.w3.org/Graphics/SVG/1.1/DTD/svg11.dtd"><svg t="1722570156192" class="icon" viewBox="0 0 1024 1024" version="1.1" xmlns="http://www.w3.org/2000/svg" p-id="3338" xmlns:xlink="http://www.w3.org/1999/xlink" width="200" height="200"><path d="M0 0h1024v1024H0z" fill="#cc2bc6" opacity=".01" p-id="3339"></path><path d="M640 426.688c0-106.688-85.312-192-192-192S256 320 256 426.688c0 89.6 64 166.4 149.312 187.712V768c-4.224 0-8.512-1.088-12.8-2.112a53.44 53.44 0 0 0-12.8-2.176c-153.6-34.112-273.024-170.624-273.024-332.8C106.688 243.2 260.288 89.6 448 89.6c187.712 0 341.312 153.6 341.312 341.312 0 64-17.024 123.776-46.912 170.688 29.888-8.512 59.712-17.088 93.888-17.088h8.512c21.312-46.912 29.888-102.4 29.888-157.824C874.688 192 682.688 0 448 0S21.312 192 21.312 426.688c0 115.2 46.976 221.824 123.776 298.624 76.8 81.088 273.024 281.6 273.024 281.6 4.288 4.288 8.576 8.576 12.8 8.576 4.288 4.224 12.8 4.224 17.088 4.224s12.8 0 17.088-4.224c2.112-2.176 4.224-3.2 6.4-4.288 2.112-1.088 4.224-2.112 6.4-4.288 0 0 38.4-38.4 85.312-89.6l-1.92-9.088c-3.52-17.28-6.592-32.384-6.592-50.624 0-42.688 8.512-85.312 29.824-123.712a419.84 419.84 0 0 1-68.224 21.312c-4.288 0-8.576 1.088-12.8 2.112-4.288 1.088-8.576 2.176-12.8 2.176v-153.6C576 593.088 640 516.288 640 426.688zM448 533.312a105.6 105.6 0 0 1-106.688-106.624A105.6 105.6 0 0 1 448 320a105.6 105.6 0 0 1 106.688 106.688A105.6 105.6 0 0 1 448 533.312zM947.2 1024c-34.112-17.088-85.312-38.4-132.288-51.2l29.888-38.4c46.912 12.8 98.112 34.112 132.288 51.2l-29.888 38.4z" fill="#cc2bc6" p-id="3340"></path><path d="M721.088 844.8c-8.576 12.8-17.088 21.312-21.376 25.6-12.8 12.8-17.024 17.088-29.824 21.312 4.224 12.8 12.8 34.176 17.024 42.688 8.576-4.288 25.6-8.512 106.688-21.312 0-2.432-0.32-5.76-0.704-9.728-1.024-9.92-2.304-23.104 0.512-32.32a204.8 204.8 0 0 1 21.504 29.248c25.6-8.576 55.488-25.6 81.088-42.688 21.312 17.088 46.912 34.112 72.512 42.688l3.712-5.632c8.32-12.736 19.392-29.696 30.464-37.056-25.6-8.512-51.2-17.088-72.576-34.112 21.376-25.6 42.688-51.2 55.488-81.088l-29.888-17.088H896c1.152-2.24 2.304-4.224 3.328-6.08a28.096 28.096 0 0 0 5.184-15.232l-51.2-4.288c-12.8 29.888-29.824 59.776-64 85.376l-21.312-12.8c-2.112 6.4-5.312 11.712-8.512 17.024-3.2 5.376-6.4 10.688-8.576 17.088H729.6c17.088-25.6 38.4-59.712 51.2-89.6l-46.912-21.312c-12.8 38.4-34.176 81.024-42.688 89.6-8.512 12.8-12.8 17.024-21.312 21.312 2.112 6.4 5.312 14.912 8.512 23.488 3.2 8.512 6.4 17.024 8.512 23.424 0 0 8.576-4.224 34.176-8.512z m64 17.088c2.176 2.176 4.864 5.12 7.808 8.576l-41.984 4.224c21.376-21.376 38.4-46.976 51.2-72.576 4.992 5.056 8.576 10.048 11.52 14.144 2.048 2.944 3.84 5.44 5.568 7.232 8.512-8.576 17.088-17.088 25.6-21.376 2.112 4.288 5.312 8.576 8.512 12.8 3.2 4.288 6.4 8.576 8.576 12.8-21.376 17.088-46.976 25.6-76.8 34.176z m132.224-89.6c-6.208 6.208-10.24 12.48-15.232 20.416a478.08 478.08 0 0 1-6.08 9.408c-8.512-8.512-17.088-17.024-21.312-29.824h42.624zM678.4 1011.2l-8.512-46.912c34.112-4.288 85.312-12.8 132.224-21.376l4.288 42.688-43.648 8.512c-29.376 5.76-58.752 11.392-84.352 17.088z" fill="#cc2bc6" p-id="3341"></path><path d="M849.088 917.312c25.6 8.576 59.712 25.6 76.8 38.4l25.6-34.112c-17.088-12.8-51.2-25.6-76.8-34.112l-25.6 29.824z" fill="#cc2bc6" p-id="3342"></path></svg>