<?xml version="1.0" standalone="no"?><!DOCTYPE svg PUBLIC "-//W3C//DTD SVG 1.1//EN" "http://www.w3.org/Graphics/SVG/1.1/DTD/svg11.dtd"><svg t="1722568880632" class="icon" viewBox="0 0 1024 1024" version="1.1" xmlns="http://www.w3.org/2000/svg" p-id="1856" xmlns:xlink="http://www.w3.org/1999/xlink" width="200" height="200"><path d="M0 0h1024v1024H0z" fill="#8a34da" opacity=".01" p-id="1857"></path><path d="M640 426.688c0-106.688-85.312-192-192-192S256 320 256 426.688c0 89.6 64 166.4 149.312 187.712V768c-4.224 0-8.512-1.088-12.8-2.112a53.44 53.44 0 0 0-12.8-2.176c-153.6-34.112-273.024-170.624-273.024-332.8C106.688 243.2 260.288 89.6 448 89.6c187.712 0 341.312 153.6 341.312 341.312 0 64-17.024 123.776-46.912 170.688 29.888-8.512 59.712-17.088 93.888-17.088h8.512c21.312-46.912 29.888-102.4 29.888-157.824C874.688 192 682.688 0 448 0S21.312 192 21.312 426.688c0 115.2 46.976 221.824 123.776 298.624 76.8 81.088 273.024 281.6 273.024 281.6 4.288 4.288 8.576 8.576 12.8 8.576 4.288 4.224 12.8 4.224 17.088 4.224s12.8 0 17.088-4.224c2.112-2.176 4.224-3.2 6.4-4.288 2.112-1.088 4.224-2.112 6.4-4.288 0 0 38.4-38.4 85.312-89.6l-1.92-9.088c-3.52-17.28-6.592-32.384-6.592-50.624 0-42.688 8.512-85.312 29.824-123.712a419.84 419.84 0 0 1-68.224 21.312c-4.288 0-8.576 1.088-12.8 2.112-4.288 1.088-8.576 2.176-12.8 2.176v-153.6C576 593.088 640 516.288 640 426.688zM448 533.312a105.6 105.6 0 0 1-106.688-106.624A105.6 105.6 0 0 1 448 320a105.6 105.6 0 0 1 106.688 106.688A105.6 105.6 0 0 1 448 533.312zM844.8 704h132.288v128h-76.8v51.2c0 6.4 0 9.6 1.6 11.2 1.6 1.6 4.8 1.6 11.2 1.6h29.824c8.576 0 12.8-4.288 12.8-42.688 6.528 6.528 20.48 10.56 32.448 14.016 3.712 1.088 7.232 2.048 10.24 3.072-4.288 55.488-17.088 68.288-51.2 68.288h-42.688c-42.624 0-55.424-12.8-55.424-55.488v-93.888h81.024v-42.624H844.8V704z" fill="#8a34da" p-id="1858"></path><path d="M793.6 960v-46.912h42.688V870.4H793.6v-29.888h46.912v-42.624h-55.424V768H832v-42.688h-46.912v-29.824h-46.976v29.824H691.2V768h46.912v25.6h-55.424v42.688h68.224v89.6a244.48 244.48 0 0 0-17.024-29.888v-42.688h-46.976c0 59.776-4.224 115.2-17.024 149.376 12.8 4.224 34.112 12.8 42.624 21.312 4.288-17.088 8.576-34.112 12.8-55.488 25.6 34.176 68.288 42.688 128 42.688H985.6c4.288-17.088 12.8-38.4 17.088-51.2-38.4 4.288-119.488 4.288-149.376 4.288-21.312 0-42.624 0-59.712-4.288z" fill="#8a34da" p-id="1859"></path></svg>